<?xml version="1.0" encoding="UTF-8" standalone="no"?>
<svg width="355px" height="262px" viewBox="0 0 355 262" version="1.1" xmlns="http://www.w3.org/2000/svg" xmlns:xlink="http://www.w3.org/1999/xlink">
    <!-- Generator: Sketch 42 (36781) - http://www.bohemiancoding.com/sketch -->
    <title>permission-based_graphics</title>
    <desc>Created with Sketch.</desc>
    <defs>
        <rect id="path-1" x="0" y="0" width="77" height="71" rx="15"></rect>
        <mask id="mask-2" maskContentUnits="userSpaceOnUse" maskUnits="objectBoundingBox" x="0" y="0" width="77" height="71" fill="white">
            <use xlink:href="#path-1"></use>
        </mask>
        <mask id="mask-4" maskContentUnits="userSpaceOnUse" maskUnits="objectBoundingBox" x="0" y="0" width="77" height="71" fill="white">
            <use xlink:href="#path-1"></use>
        </mask>
    </defs>
    <g id="Rescue-Security" stroke="none" stroke-width="1" fill="none" fill-rule="evenodd">
        <g id="Rescue-Security-Page-(Desktop)" transform="translate(-916.000000, -603.000000)">
            <g id="Premission-Based-Security" transform="translate(-11.000000, 440.000000)">
                <g id="permission-based_graphics" transform="translate(927.000000, 163.000000)">
                    <g id="Computer-" transform="translate(0.000000, 15.000000)" fill="#A6B0BC">
                        <path d="M280.72811,202.522038 L14.4832298,202.522038 C11.5945407,202.522038 9.24438166,200.170968 9.24438166,197.281157 L9.24438166,167.253438 L285.966958,167.253438 L285.966958,197.281157 C285.966958,200.170968 283.616799,202.522038 280.72811,202.522038 Z M176.788925,237.048635 L118.421838,237.048635 L122.031258,211.770007 L173.178929,211.770007 L176.788925,237.048635 Z M14.4832298,9.54271792 L280.72811,9.54271792 C283.616799,9.54271792 285.966958,11.8937889 285.966958,14.7835989 L285.966958,158.004892 L9.24438166,158.004892 L9.24438166,14.7835989 C9.24438166,11.8937889 11.5945407,9.54271792 14.4832298,9.54271792 Z M280.72811,0.294749085 L14.4832298,0.294749085 C6.49695581,0.294749085 0,6.79422597 0,14.7835989 L0,197.281157 C0,205.27053 6.49695581,211.770007 14.4832298,211.770007 L112.692893,211.770007 L109.083473,237.048635 L103.231715,237.048635 C100.678599,237.048635 98.6092362,239.1188 98.6092362,241.672908 C98.6092362,244.226438 100.678599,246.29718 103.231715,246.29718 L191.979624,246.29718 C194.532741,246.29718 196.602103,244.226438 196.602103,241.672908 C196.602103,239.1188 194.532741,237.048635 191.979624,237.048635 L186.127867,237.048635 L182.518447,211.770007 L280.72811,211.770007 C288.714384,211.770007 295.21134,205.27053 295.21134,197.281157 L295.21134,14.7835989 C295.21134,6.79422597 288.714384,0.294749085 280.72811,0.294749085 L280.72811,0.294749085 Z" id="Fill-1"></path>
                        <ellipse id="Oval-4" cx="147.441509" cy="184.411765" rx="6.70188679" ry="6.70588235"></ellipse>
                    </g>
                    <g id="magnify" transform="translate(197.000000, 6.000000)">
                        <circle id="Oval" fill="#FFFFFF" cx="59" cy="57" r="53"></circle>
                        <g id="Group-3" transform="translate(0.000000, 0.012000)" fill="#01233E">
                            <path d="M148.017,133.3111 L133.053,148.2781 C132.946,148.3851 132.77,148.3801 132.67,148.2661 L126.848,141.6371 C126.755,141.5301 126.763,141.3681 126.867,141.2721 L141.694,127.4961 C141.794,127.4031 141.948,127.4031 142.049,127.4951 L148.008,132.9321 C148.119,133.0331 148.123,133.2051 148.017,133.3111 M123.861,138.2391 L93.497,103.6821 C93.398,103.5701 93.414,103.3991 93.532,103.3071 C94.318,102.6881 95.092,102.0521 95.852,101.3861 C98.809,98.7841 101.429,95.9311 103.724,92.8981 C103.817,92.7761 103.992,92.7601 104.105,92.8631 L138.696,124.4331 C138.809,124.5361 138.81,124.7141 138.697,124.8191 L124.236,138.2581 C124.128,138.3581 123.959,138.3491 123.861,138.2391 M90.57,95.3751 C71.062,112.5191 41.711,111.6401 23.27,93.3551 C23.248,93.3331 23.225,93.3211 23.203,93.2991 C23.203,93.2991 21.29,91.5211 20.179,90.4171 C20.173,90.4111 20.167,90.4051 20.162,90.3981 C12.469,81.4161 8.233,69.9561 8.233,58.1111 C8.233,42.7031 15.281,28.2481 27.625,19.0001 C31.339,16.2181 35.889,14.2961 35.998,14.2511 C36.003,14.2481 36.003,14.2491 36.008,14.2461 C57.089,3.1181 82.442,9.0451 97.203,28.3711 C112.969,49.0111 110.078,78.2301 90.57,95.3751 M156.699,130.0351 L108.434,85.9801 C108.346,85.9001 108.325,85.7711 108.382,85.6661 C118.852,66.3341 117.621,41.9201 103.562,23.5151 C92.5,9.0351 75.754,1.2261 58.691,1.0041 C58.141,0.9961 57.589,0.9701 57.039,1.0081 C39.25,2.2501 31.542,7.3751 30.458,7.9581 C28,9.1671 22.644,12.7321 22.644,12.7321 C8.529,23.7101 0.434,40.2491 0.434,58.1111 C0.434,71.8761 5.376,85.1911 14.352,95.6051 C14.356,95.6091 14.355,95.6091 14.359,95.6131 C14.43,95.6881 17.271,98.6841 17.637,99.0391 C36.221,117.4601 64.522,120.6381 86.454,108.0971 C86.561,108.0361 86.695,108.0581 86.776,108.1501 L129.664,156.9611 C131.188,158.6951 133.863,158.7811 135.496,157.1481 L156.828,135.8161 C158.441,134.2031 158.383,131.5701 156.699,130.0351" id="Fill-1"></path>
                        </g>
                        <path d="M98.18,56.301 C97.074,56.32 96.195,57.227 96.211,58.332 C96.211,79.457 79.125,96.539 58,96.539 C55.297,96.5 55.297,100.578 58,100.539 C81.289,100.539 100.211,81.617 100.211,58.332 C100.227,57.203 99.309,56.285 98.18,56.301" id="Fill-4" fill="#01233E"></path>
                        <path d="M76.3971934,52.771423 C76.198623,52.5728525 75.932577,52.4648918 75.6543213,52.4648918 L75.6440393,52.4648918 L74.2007082,52.4751738 L74.2007082,44.6904393 C74.2007082,37.1421902 68.058518,31 60.5096262,31 C52.961377,31 46.8191869,37.1421902 46.8191869,44.6904393 L46.8191869,44.9616262 C46.8191869,45.5470557 47.2908721,46.018741 47.875659,46.018741 L51.5482492,46.018741 C52.1304656,46.018741 52.6053639,45.5470557 52.6053639,44.9616262 L52.6053639,44.6904393 C52.6053639,40.3328131 56.1494295,36.7836066 60.5096262,36.7836066 C64.8704656,36.7836066 68.4171016,40.3328131 68.4171016,44.6904393 L68.4171016,52.4777443 L68.2969311,52.4873836 L45.0571148,52.4873836 C44.7756459,52.4873836 44.5070295,52.5979148 44.308459,52.7964852 C44.1105311,52.9944131 44,53.2630295 44,53.5444984 L44.0224918,78.9454557 C44.0224918,79.5276721 44.4948197,80 45.0770361,80 L75.6543213,79.9800787 C76.2365377,79.9800787 76.708223,79.5051803 76.708223,78.9229639 L76.708223,53.5220066 C76.708223,53.2405377 76.5957639,52.9693508 76.3971934,52.771423 Z" id="lock" fill="#01233E"></path>
                    </g>
                    <g id="Users" transform="translate(112.000000, 68.000000)">
                        <mask id="mask-3" fill="white">
                            <use xlink:href="#path-1"></use>
                        </mask>
                        <g id="Rectangle-4" stroke="#A6B0BC" mask="url(#mask-2)" stroke-width="10">
                            <use mask="url(#mask-4)" xlink:href="#path-1"></use>
                        </g>
                        <path d="M63.4427917,57.0947832 L53.504875,52.7654895 C53.2710417,52.6464755 53.0130625,52.355979 52.7893958,51.9759021 L59.4269583,51.9707832 C59.5413333,51.981021 62.2761667,52.2318462 64.4708958,51.281014 C65.2994792,50.9214126 65.9145625,50.2111678 66.1636458,49.332 C66.4165417,48.4425944 66.2576875,47.502 65.7315625,46.746965 C63.8354792,44.0326783 59.4117083,36.928951 59.2731875,29.7305245 C59.2681042,29.6063916 58.86525,17.3594685 46.8571458,17.2583706 C45.0906875,17.2737273 43.4576667,17.5783007 41.96825,18.1336993 C41.6454583,17.2993217 41.1688958,16.4342308 40.4534167,15.6139301 C38.36925,13.2144545 34.9786667,12 30.3807917,12 C25.7841875,12 22.3986875,13.2144545 20.3094375,15.6139301 C17.9012083,18.3781259 18.124875,21.7322727 18.1846042,22.2927902 L18.1846042,27.7418392 C17.5339375,28.4866364 17.1666667,29.4413077 17.1666667,30.4254126 L17.1666667,34.5205175 C17.1666667,35.7695245 17.7271042,36.928951 18.6903958,37.7044615 C19.619375,41.4182098 21.5701042,44.2182378 22.25,45.1127622 L22.25,48.5014615 C22.25,49.491965 21.7137083,50.4018462 20.8495417,50.8766224 L11.780875,55.8598531 C8.83127083,57.479979 7,60.5845804 7,63.9681608 L7,68.3076923 L68,68.3076923 L68,64.5235594 C68,61.3588112 66.2526042,58.5152727 63.4427917,57.0947832 Z M51.7320625,66.2575804 L9.035875,66.2575804 L9.035875,63.9681608 C9.035875,61.3396154 10.4604792,58.9196643 12.7530625,57.6604196 L21.823,52.6759091 C23.3416458,51.8415315 24.285875,50.2418811 24.285875,48.5014615 L24.285875,44.3884406 L24.0469583,44.1030629 C24.0228125,44.0723497 21.5307083,41.0381329 20.5826667,36.8700839 L20.4873542,36.4644126 L20.1404167,36.2391818 C19.5494792,35.8552657 19.2025417,35.2154056 19.2025417,34.5256364 L19.2025417,30.4254126 C19.2025417,29.8559371 19.4401875,29.3158951 19.8824375,28.9166224 L20.214125,28.6107692 L20.214125,22.2377622 L20.2103125,22.1033916 C20.2052292,22.0777972 19.8570208,19.2380979 21.83825,16.964035 C23.5259167,15.0290979 26.4005417,14.0501119 30.3807917,14.0501119 C34.3521458,14.0501119 37.2216875,15.0188601 38.9093542,16.9435594 C39.749375,17.8982308 40.1712917,18.962958 40.3797083,19.877958 C40.3936875,19.9483427 40.4140208,20.0187273 40.4241875,20.092951 C40.4381667,20.1633357 40.4534167,20.2388392 40.4686667,20.3079441 C40.4788333,20.3885664 40.4928125,20.4627902 40.5029792,20.5382937 C40.5080625,20.5933217 40.5182292,20.6483497 40.5233125,20.6982587 C40.5385625,20.8275105 40.5525417,20.9478042 40.557625,21.062979 C40.5627083,21.0732168 40.5627083,21.0783357 40.5627083,21.0885734 C40.5677917,21.1986294 40.572875,21.3035664 40.5779583,21.3982657 L40.5779583,21.4532937 L40.5779583,21.6874825 L40.5779583,21.7181958 C40.572875,21.9575035 40.557625,22.1033916 40.557625,22.1072308 L40.5474583,28.6107692 L40.8855,28.9217413 C41.3226667,29.3158951 41.5653958,29.8559371 41.5653958,30.4254126 L41.5653958,34.5256364 C41.5653958,35.415042 40.984625,36.1995105 40.1204583,36.4695315 L39.6146667,36.6243776 L39.4507292,37.1298671 C38.7708333,39.2593217 37.8024583,41.2288112 36.5722917,42.9781888 C36.2685625,43.4081748 35.9762708,43.7933706 35.7182917,44.0825874 L35.464125,44.3730839 L35.464125,48.5974406 C35.464125,48.8572238 35.494625,49.1118881 35.5340208,49.3614336 C35.5391042,49.4113427 35.5543542,49.4663706 35.5645208,49.5162797 C35.6039167,49.7223147 35.6585625,49.9270699 35.723375,50.1215874 C35.7373542,50.1663776 35.7526042,50.2111678 35.7729375,50.2572378 C35.8517292,50.470951 35.9406875,50.6821049 36.0499792,50.8766224 C36.0601458,50.9009371 36.0753958,50.9214126 36.0855625,50.947007 C36.23425,51.2067902 36.4032708,51.4563357 36.5964375,51.6866853 L36.8302708,51.9759021 L36.8696667,51.9759021 C37.2166042,52.3214266 37.6194583,52.6208811 38.0756875,52.8512308 L47.786125,57.7397622 C50.2235833,58.9644545 51.7320625,61.4291958 51.7320625,64.1690769 L51.7320625,66.2575804 Z M65.964125,66.2575804 L53.7679375,66.2575804 L53.7679375,64.1690769 C53.7679375,60.6498462 51.8222917,57.4850979 48.6985833,55.9097622 L41.72425,52.3956503 C41.8983542,52.0014965 41.9186875,51.551035 41.7687292,51.1108112 C41.5209167,50.3916084 40.87025,49.9270699 40.1115625,49.9270699 L37.8571042,49.9270699 C37.812625,49.8413287 37.7833958,49.7517483 37.7427292,49.6621678 C37.6931667,49.546993 37.6334375,49.4318182 37.599125,49.3064056 C37.5343125,49.0773357 37.5,48.8418671 37.5,48.5974406 L37.5,45.1383566 C37.7338333,44.8478601 37.9765625,44.5228112 38.2294583,44.1632098 C39.490125,42.3728811 40.4978958,40.3790769 41.2337083,38.224028 C42.6672083,37.564972 43.6012708,36.1342448 43.6012708,34.5256364 L43.6012708,30.4254126 C43.6012708,29.4413077 43.234,28.4866364 42.5833333,27.7418392 L42.5833333,22.2927902 C42.60875,22.0381259 42.6672083,21.2024685 42.4994583,20.1031888 C43.8096875,19.5887413 45.2736875,19.3187203 46.8571458,19.3084825 C56.8649583,19.3878252 57.2271458,29.3517273 57.2373125,29.7714755 C57.3910833,37.5342587 62.0626667,45.0526154 64.0680417,47.9217483 C64.2421458,48.1725734 64.2917083,48.4771469 64.2129167,48.7714825 C64.1620833,48.9365664 64.0286458,49.2424196 63.6664583,49.4023846 C61.9584583,50.1420629 59.6404583,49.9321888 59.521,49.9270699 L52.5263333,49.9270699 C51.8718542,49.9270699 51.2758333,50.2610769 50.927625,50.8215944 C50.5857708,51.376993 50.5552708,52.0616434 50.84375,52.6464755 C51.1614583,53.2914545 51.7218958,54.1552657 52.6457917,54.6210839 L62.5595625,58.9401399 C64.6589792,60.009986 65.964125,62.1496783 65.964125,64.5235594 L65.964125,66.2575804 Z" id="users" stroke="#A6B0BC" stroke-width="2" fill="#A6B0BC" mask="url(#mask-3)"></path>
                    </g>
                    <path d="M351.039337,58.392598 C351.039337,59.2766271 350.31557,60 349.429188,60 L343.026506,60 L343.026506,66.392598 C343.026506,67.2757859 342.301896,68 341.417199,68 L336.622981,68 C335.737441,68 335.012832,67.2757859 335.012832,66.392598 L335.012832,60 L328.610149,60 C327.724609,60 327,59.2766271 327,58.392598 L327,53.607402 C327,52.7233729 327.724609,52 328.610149,52 L335.012832,52 L335.012832,45.607402 C335.012832,44.7233729 335.737441,44 336.622981,44 L341.417199,44 C342.301896,44 343.026506,44.7233729 343.026506,45.607402 L343.026506,52 L349.429188,52 C350.31557,52 351.039337,52.7233729 351.039337,53.607402 L351.039337,58.392598 Z" id="banner_cross-element-copy-12" fill="#0DA5E4"></path>
                    <path d="M343.84083,15.2866474 C343.84083,15.7956338 343.424116,16.2121212 342.913775,16.2121212 L339.227382,16.2121212 L339.227382,19.892708 C339.227382,20.4012101 338.810183,20.8181818 338.300811,20.8181818 L335.540504,20.8181818 C335.030648,20.8181818 334.613448,20.4012101 334.613448,19.892708 L334.613448,16.2121212 L330.927056,16.2121212 C330.417199,16.2121212 330,15.7956338 330,15.2866474 L330,12.5315345 C330,12.0225481 330.417199,11.6060606 330.927056,11.6060606 L334.613448,11.6060606 L334.613448,7.92547385 C334.613448,7.41648745 335.030648,7 335.540504,7 L338.300811,7 C338.810183,7 339.227382,7.41648745 339.227382,7.92547385 L339.227382,11.6060606 L342.913775,11.6060606 C343.424116,11.6060606 343.84083,12.0225481 343.84083,12.5315345 L343.84083,15.2866474 Z" id="banner_cross-element-copy-14" fill="#A6B0BC"></path>
                    <path d="M305,8.67758017 C305,9.19241992 304.578494,9.61369697 304.062283,9.61369697 L300.333497,9.61369697 L300.333497,13.3366105 C300.333497,13.8509604 299.9115,14.2727273 299.396271,14.2727273 L296.60422,14.2727273 C296.0885,14.2727273 295.666503,13.8509604 295.666503,13.3366105 L295.666503,9.61369697 L291.937717,9.61369697 C291.421997,9.61369697 291,9.19241992 291,8.67758017 L291,5.89078347 C291,5.37594372 291.421997,4.95466667 291.937717,4.95466667 L295.666503,4.95466667 L295.666503,1.23175317 C295.666503,0.716913418 296.0885,0.295636364 296.60422,0.295636364 L299.396271,0.295636364 C299.9115,0.295636364 300.333497,0.716913418 300.333497,1.23175317 L300.333497,4.95466667 L304.062283,4.95466667 C304.578494,4.95466667 305,5.37594372 305,5.89078347 L305,8.67758017 Z" id="banner_cross-element-copy-13" fill="#0F5891"></path>
                </g>
            </g>
        </g>
    </g>
</svg>